<?xml version="1.0" encoding="UTF-8"?>
<svg xmlns="http://www.w3.org/2000/svg" xmlns:xlink="http://www.w3.org/1999/xlink" width="595pt" height="222.3pt" viewBox="0 0 595 222.3" version="1.1">
<g id="surface1">
<path style=" stroke:none;fill-rule:evenodd;fill:rgb(93.75%,64.256287%,0%);fill-opacity:1;" d="M 340.738281 23.175781 C 340.738281 41.8125 340.4375 62.824219 340.710938 81.144531 L 340.867188 82.894531 C 340.878906 84.394531 349.34375 83.871094 351.5 83.871094 C 361.152344 83.871094 373.175781 84.621094 381.292969 80.308594 C 391.617188 74.820313 398.476563 66.570313 399.566406 54.402344 C 400.402344 45.082031 398.863281 44.207031 397.617188 39.90625 C 396.839844 37.214844 394.535156 33.175781 392.710938 31.078125 C 389.6875 27.597656 386.078125 24.625 382.175781 22.398438 C 381.25 21.875 379.195313 21.273438 378.136719 20.878906 C 368.84375 17.40625 357.273438 18.753906 347.074219 18.753906 C 339.910156 18.75 340.738281 18.054688 340.738281 23.175781 Z M 358.789063 33.496094 C 358 34.3125 358.445313 63.109375 358.441406 66.667969 C 358.402344 68.546875 358.019531 69.003906 359.585938 69.324219 C 363.222656 70.058594 371.023438 68.511719 374.828125 65.976563 C 378.390625 63.605469 380.980469 58.234375 381.503906 54.246094 C 382.925781 43.359375 376.1875 35.128906 365.679688 33.320313 C 364.394531 33.101563 359.75 32.5 358.789063 33.496094 Z M 358.789063 33.496094 "/>
<path style=" stroke:none;fill-rule:evenodd;fill:rgb(93.75%,64.256287%,0%);fill-opacity:1;" d="M 196.207031 84.410156 L 213.960938 84.488281 L 218.703125 73.167969 L 242.519531 73.074219 L 247.449219 84.460938 L 265.46875 84.464844 C 265.597656 80.761719 243.363281 26.285156 240.445313 18.789063 L 221.042969 18.773438 Z M 224.1875 59.984375 C 225.429688 59.953125 237.621094 59.679688 237.699219 59.621094 L 230.632813 41.164063 Z M 224.1875 59.984375 "/>
<path style=" stroke:none;fill-rule:evenodd;fill:rgb(93.75%,64.256287%,0%);fill-opacity:1;" d="M 288.523438 19.300781 L 270.960938 19.15625 C 269.367188 26.613281 270.648438 62.109375 272.074219 68.304688 C 277.34375 91.222656 323.945313 93.011719 329.050781 66.34375 C 329.785156 62.515625 330.320313 21.269531 329.328125 19.089844 C 327.996094 18.363281 314.976563 18.621094 312.527344 18.847656 C 310.445313 26.054688 314.023438 53.945313 310.679688 64.214844 C 307.367188 74.402344 289.382813 72.503906 288.625 59.542969 C 288.46875 56.917969 288.546875 54.054688 288.542969 51.40625 C 288.539063 40.773438 288.773438 29.902344 288.523438 19.300781 Z M 288.523438 19.300781 "/>
<path style=" stroke:none;fill-rule:evenodd;fill:rgb(93.75%,64.256287%,0%);fill-opacity:1;" d="M 144.042969 79.046875 C 154.613281 87 167.664063 87.539063 179.949219 83.96875 C 191.832031 80.511719 197.460938 61.164063 190.988281 53.675781 C 183.796875 45.359375 177.675781 45.050781 167.683594 41.515625 C 159.574219 36.9375 166.253906 27.898438 179.988281 33.230469 C 180.8125 33.554688 181.03125 33.605469 181.679688 34.085938 C 184.757813 36.375 189.882813 23.960938 189.996094 22.0625 C 187.195313 20.191406 175.714844 17.070313 172.609375 16.886719 C 142.75 15.132813 133.796875 51.824219 164.4375 57.808594 C 167.941406 58.492188 174.503906 60.683594 174.792969 64.765625 C 175.214844 70.699219 169.691406 72.03125 164.832031 71.78125 C 160.929688 71.582031 157.0625 68.953125 153.726563 67.085938 Z M 144.042969 79.046875 "/>
<path style=" stroke:none;fill-rule:evenodd;fill:rgb(93.75%,64.256287%,0%);fill-opacity:1;" d="M 407.960938 83.691406 L 445.40625 83.554688 L 445.75 69.800781 L 425.832031 69.414063 C 425.457031 68.335938 425.257813 60.117188 425.695313 58.445313 L 445.132813 58.035156 L 445.046875 44.140625 C 444.332031 43.484375 444.832031 43.742188 443.382813 43.632813 C 440.070313 43.640625 427.855469 44.152344 425.945313 43.332031 C 425.164063 42.65625 425.515625 34.140625 425.597656 33.152344 L 446.144531 33.097656 L 446.265625 18.890625 L 408.089844 18.761719 Z M 407.960938 83.691406 "/>
<path style=" stroke:none;fill-rule:evenodd;fill:rgb(93.75%,64.256287%,0%);fill-opacity:1;" d="M 294.566406 13.28125 L 298.75 17.429688 L 316.179688 4.972656 C 316.222656 4.035156 311.859375 0.800781 310.742188 -0.0625 Z M 294.566406 13.28125 "/>
<path style=" stroke:none;fill-rule:evenodd;fill:rgb(94.139099%,48.631287%,0%);fill-opacity:1;" d="M 617.664063 29.628906 C 523.453125 154.382813 90.210938 174.976563 -22.386719 24.136719 C 95.878906 126.027344 477.328125 132.433594 617.664063 29.628906 Z M 617.664063 29.628906 "/>
<path style=" stroke:none;fill-rule:evenodd;fill:rgb(0%,38.818359%,65.818787%);fill-opacity:1;" d="M 381.640625 220.304688 L 404.300781 220.304688 L 409.117188 211.777344 C 409.359375 211.355469 409.496094 210.6875 410.027344 210.6875 L 431.171875 210.710938 L 432.328125 220.289063 L 432.898438 220.316406 C 439.183594 220.472656 448.136719 220.335938 454.675781 220.308594 C 454.675781 219.0625 452.375 203.964844 452.132813 202.242188 C 451.289063 196.238281 450.414063 190.304688 449.5 184.171875 L 444.601563 150.230469 C 444.539063 149.800781 444.480469 149.46875 444.429688 149.089844 C 444.34375 148.464844 444.4375 148.109375 443.753906 148.109375 L 418.746094 148.113281 C 418.398438 149.136719 417.082031 151.523438 416.488281 152.570313 C 414.726563 155.703125 411.136719 162.867188 409.503906 166.128906 C 406.441406 172.230469 403.230469 178.054688 400.167969 184.175781 C 395.746094 193 390.6875 202.253906 386.230469 211.171875 C 385.535156 212.566406 381.777344 219.59375 381.640625 220.304688 Z M 418.363281 192.578125 L 429.304688 192.621094 C 429.40625 192.105469 427.851563 174.253906 427.414063 171.742188 Z M 418.363281 192.578125 "/>
<path style=" stroke:none;fill-rule:evenodd;fill:rgb(0%,38.818359%,65.818787%);fill-opacity:1;" d="M 192.40625 220.285156 L 192.96875 220.316406 C 199.300781 220.46875 208.507813 220.351563 215.070313 220.308594 C 216.367188 217.847656 219.6875 212.382813 220.46875 210.699219 L 241.945313 210.683594 L 243.105469 220.269531 L 265.449219 220.3125 L 255.058594 148.125 L 229.503906 148.121094 L 210.925781 184.195313 C 210.15625 185.550781 209.324219 187.195313 208.636719 188.597656 L 201.660156 202.171875 C 200.113281 205.175781 198.582031 208.167969 196.984375 211.1875 C 196.316406 212.453125 192.519531 219.554688 192.40625 220.285156 Z M 229.191406 192.621094 L 240.132813 192.617188 L 238.214844 171.714844 L 231.398438 187.285156 C 230.957031 188.269531 229.199219 191.902344 229.191406 192.621094 Z M 229.191406 192.621094 "/>
<path style=" stroke:none;fill-rule:evenodd;fill:rgb(0%,38.818359%,65.818787%);fill-opacity:1;" d="M 141.007813 185.59375 L 140.597656 193.578125 C 141.144531 194.800781 140.40625 201.101563 144.917969 208.722656 C 150.480469 218.125 160.121094 222.261719 171.316406 221.179688 C 177.304688 220.605469 181.695313 218.851563 186.703125 216.472656 L 189.953125 195.1875 C 189.324219 195.300781 188.832031 196.097656 188.28125 196.589844 C 186.796875 197.910156 184.160156 199.433594 182.148438 200.140625 C 171.265625 203.976563 161.519531 196.046875 164.078125 182.785156 C 166.789063 168.734375 183.664063 161.183594 192.019531 170.285156 C 192.261719 170.546875 192.523438 170.796875 192.765625 171.140625 C 192.996094 171.464844 193.027344 171.785156 193.488281 171.90625 L 196.773438 150.589844 C 196.027344 150.390625 194.875 149.695313 194.027344 149.335938 C 191.390625 148.207031 190.769531 148.039063 188.027344 147.320313 C 187.097656 147.074219 185.300781 147.042969 184.597656 146.644531 L 177.476563 146.644531 C 176.5625 147.140625 167.527344 146.957031 157.964844 154.933594 L 152.015625 160.773438 C 149.550781 163.546875 147.089844 167.351563 145.457031 170.773438 C 143.507813 174.867188 142.816406 177.234375 141.796875 181.558594 L 141.054688 185.464844 C 141.050781 185.445313 141.03125 185.554688 141.007813 185.59375 Z M 141.007813 185.59375 "/>
<path style=" stroke:none;fill-rule:evenodd;fill:rgb(0%,38.818359%,65.818787%);fill-opacity:1;" d="M 275.890625 220.308594 L 298.425781 220.3125 L 311.835938 148.117188 L 289.546875 148.109375 C 289.019531 148.238281 288.972656 149.628906 288.894531 150.050781 L 287.644531 156.855469 C 287.074219 159.9375 286.519531 162.863281 285.949219 165.953125 Z M 275.890625 220.308594 "/>
<path style=" stroke:none;fill-rule:evenodd;fill:rgb(93.75%,47.068787%,0.392151%);fill-opacity:1;" d="M 344.988281 207.835938 C 345.210938 207.164063 348.511719 203.21875 349.191406 202.375 L 357.695313 191.777344 C 358.339844 190.964844 361.523438 186.925781 362 186.566406 C 361.867188 186.480469 361.898438 186.472656 361.617188 186.410156 L 347.457031 186.371094 C 342.714844 186.371094 337.511719 186.15625 332.8125 186.394531 C 332.375 187.09375 331.742188 187.839844 331.199219 188.484375 L 327.851563 192.683594 C 327.214844 193.496094 326.691406 194.050781 326.132813 194.816406 L 321.128906 201.058594 C 318.453125 204.09375 315.34375 208.402344 312.695313 211.570313 C 311.515625 212.980469 310.507813 214.3125 309.332031 215.75 L 306.867188 218.832031 C 306.511719 219.285156 306.238281 219.492188 305.984375 220.03125 L 334.925781 220.042969 C 335.246094 219.910156 335.089844 219.976563 335.320313 219.777344 Z M 344.988281 207.835938 "/>
<path style=" stroke:none;fill-rule:evenodd;fill:rgb(0%,38.818359%,65.818787%);fill-opacity:1;" d="M 364.074219 181.457031 C 363.894531 180.660156 357.246094 167.609375 356.308594 165.796875 L 353.757813 160.585938 L 347.355469 147.757813 L 320.207031 147.75 C 320.222656 148.382813 323.75 155.125 324.308594 156.261719 L 335.964844 179.445313 C 336.210938 179.941406 336.667969 181.34375 337.195313 181.460938 Z M 364.074219 181.457031 "/>
<path style=" stroke:none;fill-rule:evenodd;fill:rgb(93.75%,47.068787%,0.392151%);fill-opacity:1;" d="M 353.757813 160.585938 L 356.308594 165.796875 C 357.246094 167.609375 363.894531 180.660156 364.074219 181.457031 C 366.488281 181.472656 365.914063 181.839844 367.726563 179.484375 C 368.230469 178.828125 368.851563 178.078125 369.457031 177.371094 L 391.394531 150.335938 C 391.992188 149.601563 392.574219 149.019531 393.003906 148.242188 L 363.859375 148.199219 C 363.472656 148.675781 354.253906 160.199219 353.757813 160.585938 Z M 353.757813 160.585938 "/>
<path style=" stroke:none;fill-rule:evenodd;fill:rgb(0%,38.818359%,65.818787%);fill-opacity:1;" d="M 344.988281 207.835938 L 351.285156 219.828125 L 379.53125 219.851563 C 379.351563 219.039063 377.863281 216.496094 377.417969 215.652344 C 376.652344 214.203125 375.984375 212.898438 375.207031 211.476563 C 374.203125 209.644531 362.449219 186.984375 362 186.566406 C 361.523438 186.925781 358.339844 190.964844 357.695313 191.777344 L 349.191406 202.375 C 348.511719 203.21875 345.210938 207.164063 344.988281 207.835938 Z M 344.988281 207.835938 "/>
</g>
</svg>
