<?xml version="1.0" encoding="UTF-8" standalone="no"?>
<!-- Created with Inkscape (http://www.inkscape.org/) -->

<svg
   width="203.70435mm"
   height="54.181mm"
   viewBox="0 0 203.70434 54.181"
   version="1.1"
   id="svg5"
   inkscape:version="1.1 (1:1.1+202105261517+ce6663b3b7)"
   sodipodi:docname="logo-name.svg"
   xmlns:inkscape="http://www.inkscape.org/namespaces/inkscape"
   xmlns:sodipodi="http://sodipodi.sourceforge.net/DTD/sodipodi-0.dtd"
   xmlns="http://www.w3.org/2000/svg"
   xmlns:svg="http://www.w3.org/2000/svg">
  <sodipodi:namedview
     id="namedview7"
     pagecolor="#ffffff"
     bordercolor="#666666"
     borderopacity="1.0"
     inkscape:pageshadow="2"
     inkscape:pageopacity="0.0"
     inkscape:pagecheckerboard="0"
     inkscape:document-units="mm"
     showgrid="false"
     inkscape:zoom="1.6378133"
     inkscape:cx="382.21696"
     inkscape:cy="122.41933"
     inkscape:window-width="1600"
     inkscape:window-height="835"
     inkscape:window-x="1920"
     inkscape:window-y="0"
     inkscape:window-maximized="1"
     inkscape:current-layer="g211" />
  <defs
     id="defs2">
    <clipPath
       clipPathUnits="userSpaceOnUse"
       id="clipPath23">
      <path
         d="M 0,595.28 H 841.89 V 0 H 0 Z"
         id="path21" />
    </clipPath>
  </defs>
  <g
     inkscape:label="Camada 1"
     inkscape:groupmode="layer"
     id="layer1"
     transform="translate(37.621191,-41.076963)">
    <g
       id="g211"
       transform="matrix(0.34827738,0,0,-0.34827738,-86.849349,242.27146)">
      <g
         id="g25"
         transform="matrix(1.0727989,0,0,1.0727989,382.45322,478.80037)">
        <path
           d="M 0,0 C 3.888,13.264 7.784,26.555 11.676,39.83 H -19.772 C -23.659,26.537 -27.512,13.36 -31.419,0 Z m -68.478,-25.842 c 8.699,30.496 17.358,60.85 26.036,91.271 0.58,0 1.096,0 1.612,0.001 23.079,0.03 46.159,0.09 69.239,0.066 4.072,-0.004 7.909,-1.122 11.235,-3.589 3.186,-2.364 4.517,-5.695 4.724,-9.548 C 44.56,48.787 43.626,45.411 42.655,42.014 40.055,32.918 37.557,23.793 35.03,14.676 32.855,6.826 30.747,-1.049 27.337,-8.485 25.239,-13.06 22.662,-17.31 18.753,-20.619 14.514,-24.208 9.542,-25.921 4.078,-25.99 c -9.278,-0.117 -18.559,-0.032 -27.839,-0.014 -14.64,0.03 -29.279,0.076 -43.919,0.117 -0.197,0 -0.394,0.021 -0.798,0.045"
           style="fill:#1d337f;fill-opacity:1;fill-rule:nonzero;stroke:none"
           id="path27" />
      </g>
      <g
         id="g29"
         transform="matrix(1.0727989,0,0,1.0727989,691.52606,521.5866)">
        <path
           d="m 0,0 h -28.309 c -3.761,-13.395 -7.5,-26.711 -11.27,-40.136 h 28.038 C -7.704,-26.794 -3.882,-13.501 0,0 m -7.043,25.585 c 8.237,10e-4 16.476,0.075 24.711,-0.051 2.074,-0.032 4.235,-0.439 6.189,-1.14 C 28.6,22.693 30.781,18.883 31.566,14.115 32.197,10.283 31.519,6.614 30.488,2.908 26.613,-11.011 22.751,-24.935 19.126,-38.92 17.16,-46.503 13.781,-53.185 8.174,-58.654 c -5.093,-4.968 -11.278,-7.435 -18.393,-7.477 -15.555,-0.092 -31.109,-0.174 -46.664,-0.208 -3.399,-0.008 -6.664,0.726 -9.612,2.525 -3.427,2.091 -5.13,5.263 -5.637,9.151 -0.59,4.539 0.308,8.913 1.562,13.232 4.119,14.181 8.24,28.36 12.402,42.528 1.619,5.513 3.784,10.783 7.436,15.315 4.876,6.049 11.261,9.066 18.977,9.152 8.236,0.093 16.474,0.021 24.712,0.021"
           style="fill:#1d337f;fill-opacity:1;fill-rule:nonzero;stroke:none"
           id="path31" />
      </g>
      <g
         id="g33"
         transform="matrix(1.0727989,0,0,1.0727989,619.33409,534.45429)">
        <path
           d="m 0,0 c -1.014,-3.844 -2.009,-7.618 -3.051,-11.569 h -53.044 c -0.821,-3.035 -1.599,-5.913 -2.428,-8.98 0.571,0 0.993,0.002 1.416,-0.001 12.598,-0.075 25.196,-0.145 37.794,-0.233 2.525,-0.018 5.025,-0.252 7.445,-1.052 5.334,-1.761 8.06,-5.934 7.669,-11.572 -0.216,-3.108 -1.145,-6.027 -2.057,-8.963 -2.131,-6.862 -4.245,-13.729 -6.369,-20.593 -0.118,-0.38 -0.263,-0.752 -0.417,-1.191 h -88.503 c 1.058,3.944 2.1,7.824 3.175,11.831 19.77,0.138 39.474,0.275 59.345,0.414 0.915,2.718 1.826,5.421 2.783,8.262 -0.481,0.033 -0.855,0.08 -1.229,0.08 -12.519,0.006 -25.037,0.009 -37.555,0.008 -3.173,-0.001 -6.312,0.234 -9.31,1.377 -4.261,1.625 -6.531,4.882 -6.655,9.441 -0.089,3.287 0.697,6.407 1.691,9.503 2.404,7.487 4.778,14.985 7.167,22.478 0.071,0.222 0.174,0.435 0.305,0.76 z"
           style="fill:#1d337f;fill-opacity:1;fill-rule:nonzero;stroke:none"
           id="path35" />
      </g>
      <g
         id="g37"
         transform="matrix(1.0727989,0,0,1.0727989,503.56095,465.54841)">
        <path
           d="m 0,0 h -78.295 c 6.315,21.387 12.636,42.794 19.011,64.385 H 18.841 C 17.714,60.572 16.575,56.717 15.38,52.673 h -47.995 c -0.897,-3.197 -1.745,-6.216 -2.672,-9.521 H 13.17 C 10.909,35.817 8.741,28.78 6.554,21.685 c -16.039,-0.11 -32.028,-0.22 -48.169,-0.331 -0.901,-3.043 -1.801,-6.082 -2.748,-9.279 H 3.735 C 2.474,7.999 1.264,4.088 0,0"
           style="fill:#1d337f;fill-opacity:1;fill-rule:nonzero;stroke:none"
           id="path39" />
      </g>
      <g
         id="g41"
         transform="matrix(1.0727989,0,0,1.0727989,603.56706,462.64692)">
        <path
           d="m 0,0 c -0.466,-2.692 -2.741,-4.656 -5.294,-4.648 -27.156,0.081 -54.312,0.162 -81.468,0.247 -0.461,0.002 -0.922,0.044 -1.533,0.076 0.477,1.615 0.902,3.054 1.4,4.742 C -57.943,0.278 -28.98,0.139 0,0"
           style="fill:#08a440;fill-opacity:1;fill-rule:nonzero;stroke:none"
           id="path43" />
      </g>
      <g
         id="g45"
         transform="matrix(1.0727989,0,0,1.0727989,596.04695,455.45573)">
        <path
           d="m 0,0 c -2.98,-2.481 -6.361,-3.993 -10.059,-4.623 -2.146,-0.365 -4.367,-0.386 -6.555,-0.388 -10.236,-0.011 -20.472,0.022 -30.707,0.071 -11.675,0.056 -23.349,0.146 -35.024,0.221 -0.473,0.003 -0.947,0 -1.656,0 0.587,1.678 1.107,3.16 1.653,4.719 z"
           style="fill:#08a440;fill-opacity:1;fill-rule:nonzero;stroke:none"
           id="path47" />
      </g>
      <g
         id="g49"
         transform="matrix(1.0727989,0,0,1.0727989,442.92378,544.17706)">
        <path
           d="M 0,0 C 0.431,1.598 0.821,3.041 1.244,4.611 27.029,4.797 52.743,4.983 78.637,5.17 78.379,3.38 78.142,1.746 77.89,0 Z"
           style="fill:#08a440;fill-opacity:1;fill-rule:nonzero;stroke:none"
           id="path51" />
      </g>
      <g
         id="g53"
         transform="matrix(1.0727989,0,0,1.0727989,500.47934,455.70473)">
        <path
           d="m 0,0 c -0.511,-1.626 -0.984,-3.129 -1.496,-4.759 h -76.757 c 0.315,1.551 0.631,3.104 0.968,4.759 z"
           style="fill:#08a440;fill-opacity:1;fill-rule:nonzero;stroke:none"
           id="path55" />
      </g>
      <g
         id="g57"
         transform="matrix(1.0727989,0,0,1.0727989,440.96442,536.6326)">
        <path
           d="M 0,0 C 0.413,1.75 0.784,3.323 1.17,4.96 H 78.94 C 78.432,3.314 77.979,1.848 77.509,0.327 51.665,0.218 25.929,0.109 0,0"
           style="fill:#08a440;fill-opacity:1;fill-rule:nonzero;stroke:none"
           id="path59" />
      </g>
      <g
         id="g61"
         transform="matrix(1.0727989,0,0,1.0727989,532.67607,536.72465)">
        <path
           d="M 0,0 C 0.757,1.801 1.744,3.268 3.287,4.275 3.64,4.506 4.21,4.451 4.68,4.452 23.639,4.484 42.598,4.502 61.557,4.535 68.036,4.547 74.515,4.596 80.994,4.627 81.503,4.63 82.012,4.628 82.736,4.628 82.329,2.976 81.973,1.525 81.598,0 Z"
           style="fill:#08a440;fill-opacity:1;fill-rule:nonzero;stroke:none"
           id="path63" />
      </g>
      <g
         id="g65"
         transform="matrix(1.0727989,0,0,1.0727989,502.73704,462.91179)">
        <path
           d="m 0,0 c -0.642,-1.71 -1.197,-3.187 -1.753,-4.669 h -77.049 c 0.254,1.635 0.487,3.137 0.725,4.669 z"
           style="fill:#08a440;fill-opacity:1;fill-rule:nonzero;stroke:none"
           id="path67" />
      </g>
      <g
         id="g69"
         transform="matrix(1.0727989,0,0,1.0727989,540.63335,543.86338)">
        <path
           d="m 0,0 c 2.639,2.452 5.762,3.98 9.272,4.428 3.035,0.388 6.125,0.46 9.191,0.461 11.195,0.006 22.389,-0.081 33.583,-0.122 7.997,-0.03 15.993,-0.044 23.989,-0.065 0.47,-0.001 0.94,0 1.643,0 C 77.095,3.054 76.586,1.613 76.015,0 Z"
           style="fill:#08a440;fill-opacity:1;fill-rule:nonzero;stroke:none"
           id="path71" />
      </g>
      <g
         id="g73"
         transform="matrix(1.0727989,0,0,1.0727989,145.48513,499.94857)">
        <path
           d="m 0,0 c -0.29,-37.438 30.573,-68.895 69.009,-68.785 37.554,0.108 68.734,30.636 68.625,68.989 C 137.527,38.262 106.471,68.672 68.925,68.748 30.657,68.825 -0.255,37.505 0,0 m 73.503,72.461 c 1.699,-0.213 3.4,-0.413 5.097,-0.642 10.865,-1.47 20.904,-5.196 30.034,-11.253 14.455,-9.591 24.317,-22.706 29.535,-39.241 2.633,-8.345 3.599,-16.927 3.049,-25.681 -1.056,-16.806 -7.206,-31.504 -18.393,-44.036 -9.533,-10.678 -21.302,-17.843 -35.121,-21.636 -8.545,-2.345 -17.253,-3.037 -26.021,-2.152 -16.002,1.616 -30.034,7.858 -41.928,18.727 -10.321,9.432 -17.305,20.946 -21.032,34.414 -2.107,7.612 -2.99,15.401 -2.401,23.264 1.739,23.251 12.124,41.75 31.103,55.301 8.779,6.269 18.606,10.178 29.264,11.923 2.086,0.342 4.196,0.527 6.294,0.796 0.311,0.04 0.614,0.142 0.92,0.216 z"
           style="fill:#08a440;fill-opacity:1;fill-rule:nonzero;stroke:none"
           id="path75" />
      </g>
      <g
         id="g77"
         transform="matrix(1.0727989,0,0,1.0727989,246.16624,483.02034)">
        <path
           d="m 0,0 h 14.861 c 0.263,0.867 0.616,1.636 0.721,2.437 0.675,5.137 -0.08,10.06 -2.576,14.622 -2.942,5.38 -7.66,8.005 -13.691,8.279 -4.074,0.185 -8.155,0.181 -12.233,0.265 -0.273,0.005 -0.545,0.036 -0.907,0.061 v 8.801 c 0.87,0 1.731,-0.002 2.593,0 0.84,0.002 1.683,-0.041 2.518,0.022 2.286,0.173 3.894,1.887 3.971,4.175 0.058,1.699 -0.914,3.025 -2.795,3.136 -5.935,0.351 -11.878,1.149 -17.825,0.11 -1.652,-0.289 -3.01,-1.025 -3.907,-2.501 -0.694,-1.141 -0.637,-1.998 0.31,-2.903 0.966,-0.924 2.022,-1.633 3.472,-1.638 1.67,-0.006 3.339,-0.165 5.138,-0.265 v -8.46 h -23.057 c -0.043,0.433 -0.108,0.856 -0.124,1.281 -0.195,5.315 -0.462,10.63 -0.528,15.946 -0.02,1.65 -0.617,2.726 -1.891,3.582 -0.264,0.177 -0.521,0.366 -0.736,0.517 v 27.659 c 2.136,0.38 4.163,0.768 6.199,1.097 6.571,1.062 13.189,1.512 19.835,1.206 C -7.421,76.82 4.88,73.381 15.496,65.101 24.514,58.066 30.424,48.89 33.88,38.061 36.453,29.998 37.329,21.707 36.719,13.311 35.583,-2.336 30.272,-16.368 19.711,-28.152 10.889,-37.996 -0.13,-43.973 -13.176,-46.155 c -7.522,-1.259 -15.052,-1.151 -22.552,0.17 -3.53,0.622 -7.025,1.435 -10.635,2.182 v 28.349 c 0.149,0.096 0.405,0.284 0.681,0.432 1.473,0.788 2.141,1.902 2.096,3.678 -0.135,5.236 -0.094,10.478 -0.12,15.717 -0.003,0.514 -10e-4,1.028 -10e-4,1.657 0.51,0.033 0.896,0.077 1.282,0.082 5.319,0.073 10.638,0.166 15.957,0.181 0.65,0.002 1.34,-0.34 1.945,-0.652 1.589,-0.819 3.06,-1.937 4.722,-2.528 3.818,-1.355 7.127,0.047 10.142,2.385 2,1.55 6.578,1.227 8.298,-0.657 0.329,-0.36 0.552,-0.877 0.669,-1.359 C -0.411,2.325 -0.221,1.145 0,0"
           style="fill:#1d337f;fill-opacity:1;fill-rule:nonzero;stroke:none"
           id="path79" />
      </g>
      <g
         id="g81"
         transform="matrix(1.0727989,0,0,1.0727989,180.64762,444.92707)">
        <path
           d="m 0,0 c -2.458,1.272 -4.714,2.825 -6.811,4.606 -7.683,6.523 -12.637,14.841 -15.85,24.279 -3.01,8.845 -4.176,17.953 -3.553,27.267 0.819,12.236 4.452,23.486 12.018,33.292 3.674,4.763 8.119,8.687 13.236,11.849 0.237,0.147 0.482,0.282 0.727,0.415 0.066,0.035 0.147,0.041 0.358,0.096 0,-6.557 0,-13.077 -0.001,-19.597 C 0.074,82.149 0.036,82.058 -0.025,82.038 -2.529,81.226 -2.225,81.19 -2.226,78.801 -2.233,60.49 -2.212,42.179 -2.257,23.868 -2.262,22.007 -2.072,20.42 0,19.626 Z"
           style="fill:#1d337f;fill-opacity:1;fill-rule:nonzero;stroke:none"
           id="path83" />
      </g>
    </g>
    <text
       xml:space="preserve"
       style="font-style:normal;font-weight:normal;font-size:6.79075px;line-height:1.25;font-family:sans-serif;fill:#1d337f;fill-opacity:1;stroke:none;stroke-width:0.169764"
       x="20.456717"
       y="93.034485"
       id="text5183"><tspan
         sodipodi:role="line"
         id="tspan5181"
         style="font-style:normal;font-variant:normal;font-weight:bold;font-stretch:normal;font-family:arial;-inkscape-font-specification:'arial Bold';fill:#1d337f;fill-opacity:1;stroke-width:0.169764"
         x="20.456717"
         y="93.034485">COMPANHIA DE SANEAMENTO DE SERGIPE</tspan></text>
  </g>
</svg>
